<svg xmlns="http://www.w3.org/2000/svg" viewBox="0 0 48 48" fill="none">
  <!-- Folder base -->
  <path d="M4 12C4 9.79086 5.79086 8 8 8H18L22 12H40C42.2091 12 44 13.7909 44 16V36C44 38.2091 42.2091 40 40 40H8C5.79086 40 4 38.2091 4 36V12Z" fill="#E67E22"/>
  <path d="M4 16H44V36C44 38.2091 42.2091 40 40 40H8C5.79086 40 4 38.2091 4 36V16Z" fill="#F39C12"/>
  
  <!-- Network symbol -->
  <circle cx="16" cy="26" r="3" fill="white"/>
  <circle cx="32" cy="26" r="3" fill="white"/>
  <circle cx="24" cy="32" r="3" fill="white"/>
  
  <!-- Connection lines -->
  <line x1="19" y1="26" x2="29" y2="26" stroke="white" stroke-width="2"/>
  <line x1="16" y1="29" x2="21" y2="32" stroke="white" stroke-width="2"/>
  <line x1="32" y1="29" x2="27" y2="32" stroke="white" stroke-width="2"/>
</svg>
